<svg width="300" height="360" viewBox="0 0 300 360" fill="none" xmlns="http://www.w3.org/2000/svg">
<mask id="mask0_8_7" style="mask-type:luminance" maskUnits="userSpaceOnUse" x="0" y="0" width="300" height="360">
<path d="M0 0H300V359.101H0V0Z" fill="white"/>
</mask>
<g mask="url(#mask0_8_7)">
<path d="M8.0294 186.256C8.0294 188.246 8.00389 190.236 7.972 192.232C7.9146 196.48 7.85083 200.867 8.08042 205.128C9.01792 222.5 16.9069 234.656 31.5307 241.25C35.6506 243.106 38.8011 245.383 40.7717 250.446C48.3483 269.885 57.3916 290.198 72.1876 307.092C83.2781 319.751 97.1174 329.751 110.504 339.426L114.592 342.379C134.968 357.175 158.259 358.38 180.179 345.765C197.526 335.791 213.387 322.991 227.328 307.736C242.927 290.657 252.015 269.381 259.311 250.778C260.836 246.875 262.647 243.227 267.895 241.429C280.759 237.028 291.486 222.085 291.811 208.112C291.932 203.265 291.901 198.323 291.875 193.54C291.805 180.599 291.722 167.213 294.439 154.005C295.038 151.078 294.866 148.98 293.91 147.583C292.883 146.078 290.721 145.064 287.29 144.477L286.984 144.426C285.051 144.101 281.824 143.565 281.735 139.107C281.435 122.857 276.359 108.099 270.982 92.4681C269.968 89.5089 268.948 86.5434 267.966 83.5651C262.424 66.8304 252.615 52.315 237.111 37.8954C209.554 12.2576 175.427 1.42856 135.695 5.71428L133.763 5.91836C120.179 7.37244 106.135 8.87117 94.4452 15.8163C63.5906 34.1645 41.2246 52.7615 32.3661 83.9094C31.0141 88.6543 29.12 93.2589 27.2832 97.7105C21.9707 110.612 19.1072 124.216 18.7246 138.253C18.6161 142.143 17.6978 144.177 12.9401 144.496C10.0128 144.694 7.79343 145.708 6.5243 147.417C5.26792 149.101 4.94266 151.448 5.57404 154.216C8.07404 165.147 8.15695 176.033 8.0294 186.256ZM149.573 359.12C136.569 359.12 123.75 354.783 111.856 346.148L107.781 343.195C94.1837 333.367 80.1212 323.214 68.6863 310.153C53.4184 292.723 44.1646 271.971 36.4414 252.137C35.1914 248.935 33.4057 247.194 29.6174 245.485C13.2781 238.119 4.47072 224.624 3.43118 205.376C3.19521 200.957 3.25899 196.486 3.32276 192.168C3.34827 190.191 3.37378 188.214 3.37378 186.237V186.205C3.50134 176.269 3.42481 165.689 1.0396 155.249C0.0957246 151.122 0.70159 147.449 2.78705 144.643C4.89802 141.805 8.30363 140.147 12.6276 139.853C13.3802 139.802 13.7692 139.732 13.9605 139.681C14.0179 139.401 14.0498 138.884 14.0753 138.131C14.4707 123.52 17.449 109.362 22.9337 96.0523C24.7641 91.6071 26.6136 87.1237 27.8891 82.6403C37.7169 48.0931 64.5409 28.1824 92.0728 11.8176C104.63 4.35586 119.19 2.79974 133.272 1.29463L135.198 1.09055C176.346 -3.3546 211.69 7.88902 240.287 34.4898C256.384 49.4643 266.582 64.5982 272.379 82.1046C273.361 85.0638 274.375 88.0102 275.383 90.9566C280.638 106.237 286.072 122.041 286.39 139.018C286.397 139.496 286.473 139.662 286.473 139.662C286.543 139.636 287.239 139.751 287.749 139.834L288.068 139.892C292.876 140.714 295.95 142.321 297.749 144.962C299.458 147.449 299.866 150.714 298.999 154.936C296.378 167.672 296.454 180.81 296.531 193.514C296.556 198.329 296.582 203.31 296.467 208.227C296.091 224.247 284.197 240.772 269.401 245.829C266.014 246.99 264.917 249.216 263.642 252.475C256.193 271.467 246.901 293.208 230.759 310.874C216.499 326.486 200.262 339.579 182.5 349.796C171.69 356.02 160.561 359.12 149.573 359.12Z" fill="black"/>
</g>
</svg>
